<?xml version="1.0" standalone="no"?>
<!DOCTYPE svg PUBLIC "-//W3C//DTD SVG 20010904//EN"
 "http://www.w3.org/TR/2001/REC-SVG-20010904/DTD/svg10.dtd">
<svg version="1.0" xmlns="http://www.w3.org/2000/svg"
 width="1920.000000pt" height="1320.000000pt" viewBox="0 0 1920.000000 1320.000000"
 preserveAspectRatio="xMidYMid meet">
<metadata>
Created by potrace 1.16, written by Peter Selinger 2001-2019
</metadata>
<g transform="translate(0.000000,1320.000000) scale(0.100000,-0.100000)"
fill="#000000" stroke="none">
<path d="M6995 11358 c-2 -7 -7 -47 -11 -88 -3 -41 -9 -97 -11 -125 -3 -27 -4
-96 -3 -153 1 -62 -2 -108 -9 -116 -9 -10 1 -11 51 -4 34 4 63 9 64 11 1 1 4
79 6 174 2 94 0 166 -4 160 -4 -7 -8 -7 -8 -2 0 6 4 16 9 24 7 10 -2 32 -30
73 -42 61 -47 66 -54 46z"/>
<path d="M7365 10997 c2 -25 6 -51 11 -58 6 -10 3 -10 -11 1 -17 14 -18 14 -6
-7 7 -13 8 -23 2 -23 -5 0 10 -35 34 -77 54 -98 120 -205 110 -178 -5 11 -9
34 -10 50 0 17 -5 37 -10 44 -6 11 -4 13 9 8 14 -5 15 -3 6 13 -5 10 -10 27
-10 36 0 16 1 16 16 -2 14 -18 15 -18 4 3 -6 13 -16 22 -22 20 -6 -1 -13 4
-16 12 -3 9 0 11 9 6 7 -5 2 9 -11 31 -41 67 -70 109 -70 100 0 -5 -7 -3 -15
4 -8 7 -15 18 -15 24 0 6 4 4 10 -4 5 -8 11 -12 14 -10 2 3 -3 16 -13 29 l-18
24 2 -46z"/>
<path d="M6657 10195 c-46 -220 -50 -419 -11 -550 19 -66 29 -82 37 -60 5 10
3 14 -5 9 -8 -5 -9 1 -4 20 4 17 3 25 -3 22 -5 -3 -7 3 -4 15 5 16 8 18 15 7
6 -9 7 -3 4 17 -3 17 -7 111 -7 210 -1 99 -5 199 -9 222 -4 25 -3 44 2 45 6 2
6 17 0 38 l-9 35 -6 -30z"/>
<path d="M7672 9900 c0 -252 1 -263 15 -220 23 64 22 364 0 435 -15 48 -15 40
-15 -215z"/>
<path d="M8339 9939 c-29 -57 -158 -265 -224 -359 -56 -81 -78 -119 -48 -82
16 19 21 21 30 10 6 -7 10 -28 9 -46 0 -17 1 -32 4 -32 10 0 103 132 165 234
52 85 61 106 52 122 -9 16 -8 17 4 7 11 -9 14 -6 16 18 1 15 -2 31 -7 34 -14
9 -12 49 2 63 7 7 8 12 4 12 -5 0 -1 12 9 26 9 14 14 28 11 31 -2 3 -15 -14
-27 -38z"/>
<path d="M8646 9646 c-117 -221 -204 -357 -389 -611 -131 -178 -223 -295 -631
-799 -255 -315 -503 -657 -491 -676 4 -6 1 -9 -7 -8 -7 2 -13 -5 -13 -14 0 -9
-4 -20 -9 -25 -5 -4 -6 -3 -2 5 4 6 5 12 2 12 -10 0 -35 -58 -28 -65 4 -5 2
-6 -3 -2 -6 3 -18 -8 -28 -24 -9 -17 -12 -27 -7 -24 6 3 7 -1 4 -10 -4 -9 -9
-13 -12 -10 -9 9 -34 -34 -26 -47 4 -6 3 -8 -3 -5 -6 4 -14 0 -17 -9 -4 -10
-2 -13 7 -9 6 4 1 -2 -12 -13 -15 -12 -21 -24 -16 -32 5 -8 4 -11 -2 -7 -12 8
-85 -141 -77 -156 4 -7 3 -9 -1 -4 -12 10 -66 -120 -58 -140 4 -10 2 -14 -4
-10 -16 10 -57 -117 -58 -173 0 -31 -4 -44 -12 -43 -16 4 -17 -19 -3 -33 8 -8
7 -20 0 -40 -9 -23 -13 -25 -21 -14 -6 10 -7 0 -3 -30 4 -25 11 -51 17 -57 7
-9 5 -13 -7 -13 -9 0 -16 -8 -17 -17 0 -15 -2 -15 -9 2 -8 18 -9 17 -9 -7 -1
-16 3 -28 9 -28 10 0 5 -58 -6 -69 -3 -3 -5 8 -2 26 2 18 1 30 -4 27 -12 -8
-10 -104 3 -104 5 0 7 5 4 10 -3 6 -1 10 5 10 11 0 7 -105 -6 -167 -2 -12 0
-24 5 -27 5 -3 8 -59 7 -123 -1 -65 3 -140 10 -168 6 -27 12 -42 13 -33 1 9 5
19 10 22 5 4 7 -4 4 -16 -4 -23 -4 -23 13 -3 15 18 16 18 10 2 -3 -10 -6 -21
-6 -23 0 -2 -7 -4 -15 -4 -8 0 -15 -5 -15 -11 0 -5 4 -8 9 -4 11 6 26 -33 17
-42 -3 -4 -6 2 -6 12 0 10 -2 16 -5 13 -10 -10 28 -128 38 -121 6 3 7 1 3 -6
-11 -17 25 -106 36 -89 6 8 7 4 3 -12 -3 -16 7 -49 29 -95 30 -61 34 -66 35
-40 1 24 3 27 12 15 8 -11 9 -7 5 19 -3 18 -6 40 -6 48 0 8 -5 11 -12 7 -7 -4
-8 -3 -4 4 8 13 -14 223 -23 217 -3 -1 -6 106 -5 238 0 133 -4 247 -8 253 -5
6 -5 20 -1 30 6 17 7 16 14 -2 6 -14 8 -10 8 16 1 26 -2 31 -9 20 -5 -8 -10
-10 -10 -4 0 6 7 17 16 25 12 10 14 23 9 58 -4 35 -3 42 5 31 9 -11 10 -4 6
30 -5 34 -3 40 4 25 8 -15 9 -11 5 20 -4 30 -3 36 5 25 8 -11 9 -5 5 25 -3 26
-2 33 3 20 8 -16 10 -14 15 15 5 23 3 36 -5 42 -12 7 -4 12 15 9 4 -1 5 11 1
26 -4 19 -3 24 4 15 7 -11 11 -8 16 13 4 14 4 30 1 36 -9 14 5 50 17 43 6 -4
8 1 3 16 -5 15 -3 20 3 16 13 -8 26 29 16 45 -5 8 -3 9 6 4 10 -6 12 -4 7 8
-4 10 -2 17 4 17 6 0 8 7 5 16 -4 10 -2 13 6 8 8 -5 9 -1 4 12 -4 10 -4 15 0
11 10 -10 36 52 27 66 -4 6 -1 7 7 2 10 -6 12 -4 7 9 -4 9 -3 15 1 12 12 -7
44 63 36 76 -4 6 -2 8 3 5 10 -6 29 37 24 56 -1 5 2 6 7 3 5 -3 15 7 21 22 21
47 103 183 108 179 2 -3 5 -922 6 -2043 l2 -2039 680 0 680 0 2 1980 c2 1089
5 1986 8 1993 3 8 38 -27 90 -90 47 -57 112 -135 144 -173 32 -39 116 -143
186 -230 70 -88 132 -159 137 -157 5 1 7 -2 3 -8 -3 -6 8 -25 26 -43 18 -17
33 -34 33 -37 1 -3 4 -4 8 -3 5 2 7 -3 5 -10 -1 -6 3 -11 10 -10 6 1 14 -4 17
-13 4 -10 2 -13 -7 -8 -9 5 -9 3 1 -7 10 -11 16 -11 33 -1 12 8 18 9 15 3 -4
-5 -2 -12 4 -16 5 -3 10 -12 10 -18 0 -7 -4 -6 -10 3 -8 12 -10 12 -10 1 0
-11 -3 -11 -17 0 -16 13 -17 12 -4 -3 7 -10 17 -16 21 -13 5 3 15 -2 24 -10
13 -14 15 -12 13 12 -1 16 -5 30 -9 33 -4 3 -9 44 -11 92 -2 74 -1 85 13 80
12 -5 13 -3 4 9 -6 8 -70 93 -141 189 -71 96 -169 224 -216 284 -68 88 -84
113 -76 127 14 27 10 37 -6 15 -13 -18 -15 -18 -32 -1 -16 17 -16 17 5 11 17
-6 22 -3 22 10 0 14 3 15 12 6 7 -7 18 -12 26 -12 18 0 62 46 62 66 0 7 7 14
16 14 20 0 64 45 64 66 0 7 7 14 16 14 20 0 61 42 66 67 2 10 20 27 40 38 21
11 39 29 40 40 2 11 19 29 40 40 21 11 39 29 40 40 2 11 19 29 40 40 22 11 38
28 38 38 0 9 7 17 15 17 8 0 21 14 30 30 19 36 21 36 46 8 l20 -23 -18 30 c-9
17 -21 32 -24 35 -4 3 -35 48 -69 100 -35 52 -66 96 -70 98 -7 3 -6 34 5 136
2 27 1 35 -6 25 -6 -9 -7 4 -3 38 4 43 2 55 -15 72 -12 12 -17 21 -12 21 17 0
61 -64 51 -74 -6 -6 -10 -15 -10 -21 0 -5 5 -2 11 8 6 10 16 14 22 10 18 -10
-20 36 -68 82 -22 22 -34 36 -25 30 9 -5 0 4 -19 21 -19 18 -36 39 -37 48 -4
27 -347 437 -582 696 -73 80 -132 150 -132 156 0 6 27 75 60 152 62 147 114
305 108 324 -3 7 -35 -46 -72 -116z m-177 -4393 c0 -852 -3 -1541 -6 -1533 -2
8 -7 22 -9 30 -7 22 -23 -7 -25 -45 l-1 -30 -8 30 -8 30 -1 -28 c0 -16 -5 -26
-11 -22 -5 3 -10 2 -10 -4 0 -14 -62 -77 -72 -73 -4 1 -8 -3 -8 -8 0 -6 -22
-33 -50 -60 -28 -28 -44 -50 -37 -53 14 -4 -455 -17 -641 -17 l-123 0 5 1128
c2 620 5 1154 6 1187 l2 60 8 -45 7 -45 3 60 3 60 7 -55 6 -55 8 38 c5 23 14
37 23 37 19 0 63 46 63 66 0 7 7 14 16 14 20 0 64 45 64 66 0 7 7 14 16 14 20
0 64 45 64 66 0 7 7 14 16 14 20 0 64 45 64 66 0 7 7 14 16 14 20 0 64 45 64
66 0 7 7 14 16 14 9 0 27 10 39 23 12 12 30 29 41 38 32 28 64 70 64 85 0 8 7
14 16 14 20 0 64 45 64 66 0 7 7 14 16 14 20 0 64 45 64 66 0 7 7 14 16 14 20
0 64 45 64 66 0 7 7 14 16 14 21 0 64 45 65 68 0 14 2 13 9 -3 7 -17 9 -14 11
15 l2 35 7 -35 c7 -32 7 -33 9 -7 0 16 5 26 11 22 6 -4 10 8 10 29 0 20 2 36
5 36 3 0 5 -696 4 -1547z"/>
<path d="M8317 9634 c-10 -13 -15 -30 -11 -37 4 -6 4 -9 0 -5 -10 8 -45 -32
-123 -142 -80 -113 -89 -130 -72 -141 12 -7 11 -11 -1 -19 -11 -7 -11 -10 -2
-10 7 0 11 -4 7 -9 -6 -11 -14 -71 -9 -71 9 0 52 74 48 82 -3 5 -1 7 4 6 6 -2
39 35 74 82 101 134 164 227 140 206 -19 -17 -22 -17 -28 -3 -3 9 -2 21 2 28
5 8 3 9 -7 4 -12 -7 -12 -6 -1 8 8 9 10 22 5 30 -6 12 -11 11 -26 -9z"/>
<path d="M5757 9474 c-105 -17 -124 -24 -52 -18 l60 5 -24 -21 c-21 -18 -21
-20 -5 -21 11 0 14 -3 7 -6 -7 -2 -13 -12 -13 -21 0 -10 3 -13 8 -7 4 7 79 11
204 10 109 0 198 3 198 8 0 4 -7 7 -15 7 -8 0 -15 4 -15 8 0 5 15 7 33 6 17
-2 24 -1 14 2 -9 3 -14 10 -10 16 4 7 0 9 -10 5 -10 -4 -17 -2 -17 5 0 7 18 9
56 5 77 -8 63 0 -30 18 -94 18 -281 18 -389 -1z"/>
<path d="M11182 9407 c-9 -10 -13 -472 -14 -1793 l-3 -1778 -49 72 c-27 39
-54 69 -59 65 -6 -3 -7 -1 -3 6 10 15 -13 43 -27 34 -6 -4 -7 -1 -2 7 5 8 -1
20 -16 32 -13 11 -17 17 -9 13 8 -4 0 5 -17 20 -32 25 -46 54 -20 39 7 -4 9
-3 4 2 -5 5 -12 9 -15 9 -13 0 -32 16 -32 27 0 6 7 5 17 -3 9 -8 2 7 -16 34
-18 26 -36 45 -41 42 -5 -3 -15 4 -23 15 -12 18 -15 18 -20 6 -4 -9 -1 -15 6
-13 9 1 12 -22 12 -83 0 -57 4 -88 13 -93 6 -4 12 -16 12 -27 0 -10 -6 -21
-12 -24 -10 -3 -8 -9 5 -19 9 -8 17 -20 17 -27 0 -7 -9 -2 -21 11 -12 13 -25
23 -30 22 -4 -2 -5 5 -2 15 3 9 3 14 -2 10 -4 -4 -14 -1 -22 7 -21 22 -38 18
-52 -11 -7 -17 -17 -24 -26 -20 -8 3 -15 1 -15 -5 0 -6 -103 -114 -230 -240
-126 -127 -230 -237 -230 -246 0 -11 -9 -5 -26 18 -63 82 1 -27 221 -372 129
-203 235 -371 235 -374 0 -2 19 -34 43 -70 78 -120 87 -137 81 -146 -3 -5 0
-9 6 -9 7 0 9 -9 5 -22 -4 -16 -3 -19 3 -9 12 16 27 -3 16 -21 -4 -6 -3 -8 3
-5 6 4 16 0 23 -8 11 -13 10 -14 -1 -10 -11 4 -14 -13 -14 -90 0 -52 3 -95 8
-95 4 0 7 -5 7 -11 0 -7 -10 -9 -24 -5 -14 3 -28 1 -32 -6 -4 -6 -3 -8 4 -4 6
3 14 1 17 -5 4 -5 13 -8 21 -5 19 7 29 -13 14 -27 -10 -9 -11 -9 -5 3 8 13 6
13 -7 2 -11 -9 -18 -9 -21 -2 -3 6 -4 5 -3 -2 2 -7 9 -12 16 -10 8 2 10 -3 6
-14 -5 -14 -4 -15 9 -4 13 10 15 9 15 -9 0 -14 -4 -20 -12 -15 -7 4 -8 3 -4
-5 4 -6 11 -9 16 -6 4 3 11 -2 14 -11 3 -8 2 -12 -4 -9 -20 12 -9 -6 18 -32
15 -15 21 -23 14 -18 -11 6 -12 3 -3 -14 7 -11 14 -21 17 -21 3 0 2 5 -2 12
-4 6 -3 8 4 4 6 -3 10 -14 10 -24 -1 -19 40 -92 51 -92 4 0 8 -6 8 -12 0 -18
63 -118 74 -118 5 0 8 -3 7 -7 -4 -17 14 -53 24 -47 6 4 8 3 5 -3 -6 -10 233
-435 266 -474 l19 -21 565 5 c459 4 567 8 574 19 11 17 7 6084 -4 6095 -5 4
-309 9 -676 11 -559 2 -670 0 -679 -11z m1188 -926 c0 -723 -4 -910 -20 -866
-6 17 -8 15 -14 -13 -4 -18 -17 -37 -29 -44 -12 -6 -30 -22 -41 -36 -10 -13
-25 -29 -33 -36 -8 -6 -26 -24 -41 -40 -15 -16 -33 -34 -40 -40 -7 -6 -25 -24
-40 -40 -15 -16 -33 -34 -40 -40 -7 -6 -25 -24 -40 -40 -15 -16 -33 -34 -40
-40 -7 -6 -25 -24 -40 -40 -15 -16 -33 -34 -40 -40 -7 -6 -25 -24 -40 -40 -15
-16 -33 -34 -40 -40 -7 -6 -25 -24 -40 -40 -15 -16 -33 -34 -40 -40 -7 -6 -25
-24 -40 -40 -15 -16 -33 -34 -40 -40 -7 -6 -25 -24 -40 -40 -15 -16 -33 -34
-40 -40 -7 -6 -25 -24 -40 -40 -15 -16 -33 -34 -40 -40 -7 -6 -25 -24 -40 -40
-15 -16 -33 -34 -40 -40 -7 -6 -25 -23 -39 -39 -20 -20 -29 -24 -35 -15 -4 7
-8 597 -8 1311 l0 1297 510 0 510 0 0 -759z"/>
<path d="M7440 9203 c-29 -31 -59 -58 -67 -59 -17 -3 -31 -14 -17 -14 6 0 9
-15 8 -32 -1 -18 2 -40 6 -49 6 -11 5 -16 -6 -16 -7 0 -14 6 -14 12 0 7 -10
20 -22 31 l-22 19 21 -34 c30 -49 50 -47 106 7 57 55 145 160 104 122 l-28
-24 -6 22 c-3 12 -10 19 -15 16 -6 -4 -3 5 7 19 32 49 -4 36 -55 -20z"/>
<path d="M4892 9108 c-7 -7 -12 -9 -12 -6 0 11 -164 -48 -290 -104 -14 -6 -29
-11 -33 -9 -5 1 -6 -6 -3 -16 3 -10 6 -70 7 -135 2 -77 6 -115 13 -113 6 2 77
20 158 39 140 35 227 66 184 66 -12 0 -16 5 -13 14 4 9 -1 17 -11 19 -14 4
-13 5 3 6 19 1 20 7 17 83 -2 49 -8 86 -15 90 -8 5 -6 8 6 8 19 0 23 16 6 22
-9 3 -9 10 0 26 13 24 3 30 -17 10z"/>
<path d="M5845 8919 c-38 -3 -86 -13 -105 -22 -19 -9 -25 -14 -13 -11 12 2 24
0 28 -6 3 -5 1 -10 -6 -10 -8 0 -7 -5 2 -17 8 -10 9 -14 2 -10 -6 4 -15 2 -18
-4 -5 -7 43 -9 171 -3 99 4 181 11 182 16 2 5 10 4 17 -2 10 -8 14 -5 19 14 3
13 14 27 24 29 12 3 10 5 -8 7 -24 2 -23 3 5 10 40 9 -206 17 -300 9z"/>
<path d="M5815 8721 c-52 -4 -81 -10 -82 -18 -2 -7 2 -13 7 -13 12 0 9 -22 -5
-32 -5 -4 49 -8 120 -9 72 -1 160 -2 198 -3 48 -1 67 2 67 11 0 7 7 13 17 13
28 0 -16 40 -46 42 -15 0 -7 4 19 8 56 8 -181 8 -295 1z"/>
<path d="M4695 8580 c-44 -4 -92 -11 -107 -15 l-28 -7 0 -119 c0 -106 -2 -119
-17 -120 -10 -1 -4 -5 12 -9 l30 -8 -28 -1 c-17 -1 -26 -5 -22 -12 4 -6 14 -8
22 -5 8 3 12 2 9 -2 -5 -9 188 -109 272 -142 63 -24 116 -28 67 -5 -16 8 -23
13 -15 12 9 -1 17 1 18 6 1 4 2 99 2 212 0 188 -1 205 -17 206 -10 1 -4 5 12
9 39 10 -100 10 -210 0z"/>
<path d="M6747 8510 c3 -11 1 -20 -4 -20 -6 0 -7 -22 -2 -52 3 -29 5 -56 3
-60 -2 -3 2 -9 8 -11 10 -4 9 -8 -2 -16 -8 -5 -11 -13 -7 -17 9 -9 137 115
137 132 0 11 -63 42 -117 58 -18 6 -20 4 -16 -14z"/>
<path d="M6022 7915 c-45 -7 -126 -16 -180 -20 -94 -7 -157 -23 -102 -26 l25
-1 -25 -8 c-18 -6 -20 -8 -7 -9 10 -1 15 -5 12 -11 -3 -5 0 -11 7 -12 7 -1
-16 -5 -52 -9 -41 -4 1 -6 110 -4 170 3 305 19 295 35 -3 5 3 11 13 15 17 5
20 17 13 58 -1 8 -3 8 -109 -8z"/>
</g>
</svg>
